# 3ds Max Wavefront OBJ Exporter v0.97b - (c)2007 guruware
# File Created: 20.11.2018 19:04:01

#
# object Box001
#

v  -24.1583 -1.2755 -3.6039
v  -24.1583 -1.2755 -22.8219
v  3.5061 -1.2755 -19.1750
v  3.5061 -1.2755 -7.2507
v  -24.1583 1.2755 -3.6039
v  3.5061 1.2755 -7.2507
v  3.5061 1.2755 -19.1750
v  -24.1583 1.2755 -22.8219
v  15.4797 -1.2755 -9.8305
v  15.4797 -1.2755 -16.5952
v  15.4797 1.2755 -16.5952
v  15.4797 1.2755 -9.8305
v  -27.7903 1.2755 22.8219
v  -27.7903 -1.2755 22.8219
v  -9.2337 -1.2755 22.8219
v  -9.2337 1.2755 22.8219
v  -24.0193 -1.2755 15.9933
v  -24.0193 1.2755 15.9933
v  -9.2337 -1.2755 15.9933
v  -9.2337 1.2755 15.9933
v  27.7903 -1.2755 1.1575
v  27.7903 1.2755 1.1575
v  27.7903 1.2755 6.3080
v  27.7903 -1.2755 6.3080
v  13.7407 1.2755 15.9933
v  13.7407 -1.2755 15.9933
v  13.7407 1.2755 22.8219
v  13.7407 -1.2755 22.8219
# 28 vertices

vn -0.5414 -0.5708 0.6173
vn -0.5414 -0.5708 -0.6173
vn 0.1223 -0.6981 -0.7054
vn -0.1398 -0.9883 0.0617
vn -0.5414 0.5708 0.6173
vn -0.1398 0.9883 0.0617
vn 0.1223 0.6981 -0.7054
vn -0.5414 0.5708 -0.6173
vn 0.7191 -0.6321 0.2887
vn 0.6286 -0.5893 -0.5075
vn 0.6286 0.5893 -0.5075
vn 0.7191 0.6321 0.2887
vn -0.7161 0.5554 0.4228
vn -0.7161 -0.5554 0.4228
vn 0.0000 -0.7071 0.7071
vn 0.0000 0.7071 0.7071
vn -0.5750 -0.6685 -0.4717
vn -0.5750 0.6685 -0.4717
vn 0.2022 -0.9755 -0.0864
vn 0.2022 0.9755 -0.0864
vn 0.3100 -0.5462 -0.7782
vn 0.3100 0.5462 -0.7782
vn 0.7234 0.6370 0.2661
vn 0.7234 -0.6370 0.2661
vn -0.2330 0.8078 -0.5415
vn -0.2330 -0.8078 -0.5415
vn 0.3279 0.6237 0.7095
vn 0.3279 -0.6237 0.7095
# 28 vertex normals

vt 1.0000 0.0000 0.0000
vt 1.0000 1.0000 0.0000
vt 0.0000 1.0000 0.0000
vt 0.0000 0.0000 0.0000
# 4 texture coords

o Box001
g Box001
s 2
f 1/1/1 2/2/2 3/3/3 4/4/4 
s 4
f 5/4/5 6/1/6 7/2/7 8/3/8 
s 8
f 1/4/1 4/1/4 6/2/6 5/3/5 
s 16
f 9/4/9 10/1/10 11/2/11 12/3/12 
s 32
f 3/4/3 2/1/2 8/2/8 7/3/7 
s 64
f 2/4/2 1/1/1 5/2/5 8/3/8 
s off
f 4/4/4 3/1/3 10/1/10 9/4/9 
f 3/1/3 7/2/7 11/2/11 10/1/10 
f 7/2/7 6/3/6 12/3/12 11/2/11 
f 13/3/13 14/4/14 15/4/15 16/3/16 
f 6/3/6 4/4/4 17/4/17 18/3/18 
f 4/4/4 9/4/9 19/4/19 17/4/17 
f 9/4/9 12/3/12 20/3/20 19/4/19 
f 12/3/12 6/3/6 18/3/18 20/3/20 
f 18/3/18 17/4/17 14/4/14 13/3/13 
f 17/4/17 19/4/19 15/4/15 14/4/14 
f 21/4/21 22/3/22 23/3/23 24/4/24 
f 20/3/20 18/3/18 13/3/13 16/3/16 
f 19/4/19 20/3/20 25/3/25 26/4/26 
f 20/3/20 16/3/16 27/3/27 25/3/25 
f 16/3/16 15/4/15 28/4/28 27/3/27 
f 15/4/15 19/4/19 26/4/26 28/4/28 
f 26/4/26 25/3/25 22/3/22 21/4/21 
f 25/3/25 27/3/27 23/3/23 22/3/22 
f 27/3/27 28/4/28 24/4/24 23/3/23 
f 28/4/28 26/4/26 21/4/21 24/4/24 
# 26 polygons

