# Blender v2.79 (sub 6) OBJ File: ''
# www.blender.org
mtllib light_rune.mtl
o Cube
v -0.460395 0.076896 0.221789
v -0.594055 0.076896 1.262280
v -1.662317 0.076896 1.462668
v -1.662316 0.076896 0.021401
v 0.092303 0.076896 0.453388
v 0.225961 0.076896 1.030681
v -0.460395 0.076896 -0.610971
v 0.092303 0.076896 -0.610971
v -0.460395 0.076896 -1.462714
v 0.092303 0.076896 -1.462714
v 2.398502 0.076896 0.057918
v 2.398502 0.076896 -0.362756
v -0.460395 -0.076896 0.221789
v -0.594055 -0.076896 1.262280
v -1.662316 -0.076896 0.021401
v -1.662317 -0.076896 1.462668
v 0.092303 -0.076896 0.453388
v 0.225961 -0.076896 1.030681
v 0.092303 -0.076896 -0.610971
v -0.460395 -0.076896 -0.610971
v 0.092303 -0.076896 -1.462714
v -0.460395 -0.076896 -1.462714
v 2.398502 -0.076896 0.057918
v 2.398502 -0.076896 -0.362756
vn 0.0000 -1.0000 0.0000
vn 0.0000 1.0000 0.0000
vn -0.4305 0.0000 0.9026
vn -0.9742 0.0000 0.2256
vn 1.0000 0.0000 0.0000
vn -0.1645 0.0000 0.9864
vn 0.2786 0.0000 -0.9604
vn -0.1844 0.0000 -0.9829
vn -1.0000 0.0000 0.0000
vn -0.2718 0.0000 -0.9624
vn 0.0000 0.0000 1.0000
usemtl Material
s off
f 1//1 2//1 3//1 4//1
f 1//1 5//1 6//1 2//1
f 1//1 7//1 8//1 5//1
f 7//1 9//1 10//1 8//1
f 10//1 12//1 11//1 8//1
f 13//2 15//2 16//2 14//2
f 13//2 14//2 18//2 17//2
f 13//2 17//2 19//2 20//2
f 20//2 19//2 21//2 22//2
f 21//2 19//2 23//2 24//2
f 12//3 10//3 21//3 24//3
f 6//4 5//4 17//4 18//4
f 9//5 7//5 20//5 22//5
f 1//6 4//6 15//6 13//6
f 7//5 1//5 13//5 20//5
f 8//7 11//7 23//7 19//7
f 3//8 2//8 14//8 16//8
f 5//9 8//9 19//9 17//9
f 2//10 6//10 18//10 14//10
f 11//9 12//9 24//9 23//9
f 4//5 3//5 16//5 15//5
f 10//11 9//11 22//11 21//11
